<svg width="18" height="10" viewBox="0 0 18 10" fill="none" xmlns="http://www.w3.org/2000/svg">
<path d="M17.0306 1.53062L9.53063 9.03061C9.46098 9.10035 9.37826 9.15567 9.28721 9.19341C9.19616 9.23115 9.09857 9.25058 9 9.25058C8.90144 9.25058 8.80385 9.23115 8.7128 9.19341C8.62175 9.15567 8.53903 9.10035 8.46938 9.03061L0.96938 1.53062C0.82865 1.38988 0.749588 1.19901 0.749588 0.99999C0.749588 0.800967 0.82865 0.610095 0.96938 0.469364C1.11011 0.328634 1.30098 0.249573 1.50001 0.249573C1.69903 0.249573 1.8899 0.328634 2.03063 0.469364L9 7.43968L15.9694 0.469364C16.0391 0.399682 16.1218 0.344406 16.2128 0.306695C16.3039 0.268983 16.4015 0.249573 16.5 0.249573C16.5986 0.249573 16.6961 0.268983 16.7872 0.306695C16.8782 0.344406 16.9609 0.399682 17.0306 0.469364C17.1003 0.539047 17.1556 0.621773 17.1933 0.712817C17.231 0.803862 17.2504 0.901444 17.2504 0.99999C17.2504 1.09854 17.231 1.19612 17.1933 1.28716C17.1556 1.37821 17.1003 1.46093 17.0306 1.53062Z" fill="#4A5568"/>
</svg>
